<svg width="45" height="42" viewBox="0 0 45 42" fill="none" xmlns="http://www.w3.org/2000/svg">
<path d="M45 20.8537C45 9.33657 34.9214 0.00585938 22.5 0.00585938C10.0702 0.00585938 0 9.33657 0 20.8537C0 31.2568 8.22516 39.8825 18.9844 41.4448V26.8813H13.2708V20.855H18.9844V16.2593C18.9844 11.0357 22.3383 8.15084 27.4795 8.15084C29.9419 8.15084 32.5195 8.55738 32.5195 8.55738V13.6872H29.6775C26.8875 13.6872 26.0156 15.2964 26.0156 16.9447V20.8537H32.2552L31.2525 26.88H26.0156V41.4435C36.7664 39.8812 45 31.2554 45 20.8524V20.8537Z" fill="#36BB9D"/>
</svg>
